<svg xmlns="http://www.w3.org/2000/svg" xmlns:xlink="http://www.w3.org/1999/xlink" viewBox="0 0 512 512"><defs><style>.cls-1{fill:none;}.cls-2{fill:url(#linear-gradient);}.cls-3{fill:#126cd8;}.cls-4{fill:#1971f2;}</style><linearGradient id="linear-gradient" x1="66.85" y1="-86.25" x2="158.99" y2="-86.25" gradientTransform="translate(132.65 320.25)" gradientUnits="userSpaceOnUse"><stop offset="0" stop-color="#1971f2"/><stop offset="1" stop-color="#126cd8"/></linearGradient></defs><g id="Layer_2" data-name="Layer 2"><g id="Layer_1-2" data-name="Layer 1"><rect class="cls-1" width="512" height="512"/><polygon class="cls-2" points="199.5 288 199.5 224 320.58 224 294.39 180 365.32 180 429.61 288 199.5 288"/><path class="cls-3" d="M283.5,96v96a96.54,96.54,0,0,0-64-90.44V96Z"/><path class="cls-4" d="M283.5,192V320a96.39,96.39,0,0,1-96,96,96.73,96.73,0,0,1-67.88-28.11l-8.49-8.49,45.26-45.26,8.49,8.48a32,32,0,0,0,54.62-21.85V192a32,32,0,1,0-32,32h12v64h-12a96,96,0,0,1,0-192,94.74,94.74,0,0,1,32,5.56,96.54,96.54,0,0,1,64,90.44Z"/></g></g></svg>